<?xml version="1.0" encoding="iso-8859-1"?>
<!-- Generator: Adobe Illustrator 19.0.0, SVG Export Plug-In . SVG Version: 6.00 Build 0)  -->
<svg version="1.1" id="Layer_1" xmlns="http://www.w3.org/2000/svg" xmlns:xlink="http://www.w3.org/1999/xlink" x="0px" y="0px"
	 viewBox="0 0 512 512" style="enable-background:new 0 0 512 512;" xml:space="preserve">
<g>
	<g>
		<path d="M387.86,244.612H384h-86.601c25.431-39.455,38.325-69.141,38.325-88.273c0-48.366-39.349-87.714-87.715-87.714
			s-87.715,39.349-87.715,87.714c0,19.132,12.894,48.819,38.325,88.273h-90.792L0,417.81v25.566h512v-25.847L387.86,244.612z
			 M379.85,260.221l29.137,40.585h-83.185l-11.693-40.585H379.85z M175.904,156.337c0-39.758,32.346-72.105,72.105-72.105
			s72.106,32.345,72.106,72.105c0,31.114-47.453,99.171-72.106,131.192C223.356,255.515,175.904,187.47,175.904,156.337z
			 M264.177,308.167c0,8.915-7.253,16.169-16.169,16.169c-8.915,0-16.169-7.253-16.169-16.169c0-4.059,1.532-7.858,4.117-10.76
			c3.662,4.772,5.895,7.567,5.961,7.65l6.09,7.599l6.092-7.599c0.067-0.082,2.299-2.877,5.961-7.65
			C262.646,300.308,264.177,304.108,264.177,308.167z M116.497,260.221h48.014l-9.668,23.935h-53.247L116.497,260.221z
			 M15.61,427.766v-5.494l51.001-81.921h39.209c3.351,9.082,12.093,15.575,22.325,15.575s18.974-6.494,22.325-15.575h31.01
			l-27.114,87.415H15.61z M119.967,332.141c0-4.509,3.668-8.177,8.177-8.177c4.508,0,8.176,3.668,8.176,8.177
			c0,4.508-3.668,8.176-8.176,8.176C123.635,340.317,119.967,336.649,119.967,332.141z M170.71,427.766l31.955-103.024h-51.918
			c-3.119-9.504-12.069-16.388-22.602-16.388c-10.534,0-19.484,6.884-22.603,16.388H76.329l15.548-24.976h73.496l15.972-39.545
			h27.645c6.281,9.187,12.33,17.595,17.495,24.594c-6.385,5.901-10.255,14.303-10.255,23.353c0,17.522,14.256,31.778,31.778,31.778
			s31.778-14.256,31.778-31.778c0-9.053-3.868-17.454-10.254-23.353c5.165-6.997,11.213-15.407,17.494-24.593h10.836l16.189,56.195
			h106.14l34.366,47.87h-47.891v-0.001c-3.489-13.758-15.976-23.969-30.804-23.969s-27.315,10.21-30.804,23.969H226l-16.588,63.48
			H170.71z M392.033,372.096c0,8.915-7.253,16.169-16.169,16.169s-16.169-7.253-16.169-16.169s7.253-16.169,16.169-16.169
			S392.033,363.18,392.033,372.096z M496.39,427.766H225.545l12.509-47.87h107.005c3.487,13.763,15.975,23.977,30.806,23.977
			c14.831,0,27.319-10.214,30.806-23.977h59.095l30.623,42.656V427.766z"/>
	</g>
</g>
<g>
	<g>
		<rect x="216.455" y="148.875" width="15.61" height="15.61"/>
	</g>
</g>
<g>
	<g>
		<rect x="240.39" y="148.875" width="15.61" height="15.61"/>
	</g>
</g>
<g>
	<g>
		<rect x="264.325" y="148.875" width="15.61" height="15.61"/>
	</g>
</g>
<g>
	<g>
		<path d="M248.009,100.587c-30.741,0-55.751,25.01-55.751,55.751c0,28.156,20.984,51.489,48.132,55.217v9.121H256v-9.168
			c26.967-3.889,47.76-27.142,47.76-55.17C303.76,125.597,278.75,100.587,248.009,100.587z M248.009,196.478
			c-22.134,0.001-40.141-18.006-40.141-40.141c0-22.134,18.007-40.141,40.141-40.141s40.141,18.007,40.141,40.141
			C288.15,178.472,270.142,196.478,248.009,196.478z"/>
	</g>
</g>
<g>
</g>
<g>
</g>
<g>
</g>
<g>
</g>
<g>
</g>
<g>
</g>
<g>
</g>
<g>
</g>
<g>
</g>
<g>
</g>
<g>
</g>
<g>
</g>
<g>
</g>
<g>
</g>
<g>
</g>
</svg>
