<?xml version="1.0" encoding="iso-8859-1"?>
<!-- Generator: Adobe Illustrator 19.0.0, SVG Export Plug-In . SVG Version: 6.00 Build 0)  -->
<svg version="1.1" id="Layer_1" xmlns="http://www.w3.org/2000/svg" xmlns:xlink="http://www.w3.org/1999/xlink" x="0px" y="0px"
	 viewBox="0 0 512 512" style="enable-background:new 0 0 512 512;" xml:space="preserve">
<g>
	<g>
		<path d="M419.88,90.726l-81.294,47.308l-87.091-47.208l-88.103,48.359H0v275.651h167.674l83.87-53.18l87.419,54.739l78.75-55.125
			L512,421.274V142.433L419.88,90.726z M15.668,399.169V154.853h141.726l0.167,244.315H15.668z M330.775,266.238l-11.344-7.562
			l-8.69,13.037l20.034,13.356v107.716l-71.541-44.797h0.515v-99.766l11.601,7.735l8.69-13.036l-20.293-13.529v-94.485h-15.668
			v94.68l-20,13.333l8.69,13.036l11.309-7.539v99.423l-70.856,44.928l-0.164-241.015l71.021-38.984v7.514h15.668v-7.16
			l71.027,38.501V266.238z M410.159,332.319v15.115l-63.716,44.601V285.217l20.258-13.506l-8.69-13.037l-11.568,7.712V151.589
			l63.716-37.078v114.652l-20.634,13.756l8.69,13.036l11.944-7.962v67.614h15.668v-66.963l10.967,7.312l8.69-13.036l-19.658-13.106
			V112.032l70.505,39.574v241.125l-70.505-44.866v-15.546H410.159z"/>
	</g>
</g>
<g>
	<g>
		<path d="M86.617,170.698c-21.696,0-39.347,17.65-39.347,39.347c0,19.268,27.768,53.502,33.334,60.169l6.013,7.203l6.013-7.203
			c5.566-6.667,33.334-40.9,33.334-60.169C125.964,188.349,108.313,170.698,86.617,170.698z M86.616,252.639
			c-11.282-14.717-23.678-34.106-23.678-42.594c0-13.058,10.623-23.679,23.679-23.679s23.679,10.623,23.679,23.679
			C110.296,218.519,97.898,237.914,86.616,252.639z"/>
	</g>
</g>
<g>
	<g>
		<rect x="79.049" y="205.938" width="14.623" height="15.668"/>
	</g>
</g>
<g>
	<g>
		<rect x="47.711" y="292.622" width="78.339" height="15.668"/>
	</g>
</g>
<g>
	<g>
		<rect x="62.334" y="316.646" width="48.048" height="15.668"/>
	</g>
</g>
<g>
	<g>
		<rect x="55.022" y="370.961" width="16.712" height="15.668"/>
	</g>
</g>
<g>
	<g>
		<rect x="79.049" y="370.961" width="14.623" height="15.668"/>
	</g>
</g>
<g>
	<g>
		<rect x="103.073" y="370.961" width="14.623" height="15.668"/>
	</g>
</g>
<g>
</g>
<g>
</g>
<g>
</g>
<g>
</g>
<g>
</g>
<g>
</g>
<g>
</g>
<g>
</g>
<g>
</g>
<g>
</g>
<g>
</g>
<g>
</g>
<g>
</g>
<g>
</g>
<g>
</g>
</svg>
